<svg xmlns="http://www.w3.org/2000/svg" width="109.753" height="31.047" viewBox="0 0 109.753 31.047"><g transform="translate(-59.744 -36.953)"><g transform="translate(97.825 47.135)"><path d="M4.737,86.1H.395A.385.385,0,0,0,0,86.495v9.643a.385.385,0,0,0,.395.395h2.2a.385.385,0,0,0,.395-.395V93.544H4.68c2.481,0,4.229-1.523,4.229-3.722S7.162,86.1,4.737,86.1Zm1.128,3.722c0,.677-.62,1.184-1.523,1.184H2.989V88.581h1.3C5.244,88.581,5.865,89.089,5.865,89.822Z" transform="translate(0 -85.762)" fill="#fff"/><path d="M31.217,95.912l-2.086-3.271a3.26,3.26,0,0,0,1.917-2.932c0-2.143-1.748-3.609-4.173-3.609h-4.68a.385.385,0,0,0-.395.395v9.643a.385.385,0,0,0,.395.395H24.45a.385.385,0,0,0,.395-.395V93.149H26.2L28,96.307a.464.464,0,0,0,.338.226h2.538a.309.309,0,0,0,.338-.226A.482.482,0,0,0,31.217,95.912Zm-3.271-6.2c0,.62-.62,1.071-1.466,1.071H24.845V88.638H26.48C27.213,88.581,27.947,88.92,27.947,89.709Z" transform="translate(-9.507 -85.762)" fill="#fff"/><path d="M48.952,85.5a5.531,5.531,0,1,0,0,11.053,5.531,5.531,0,1,0,0-11.053Zm0,8.346a2.593,2.593,0,0,1-2.65-2.82,2.623,2.623,0,0,1,2.65-2.82,2.825,2.825,0,0,1,0,5.639Z" transform="translate(-18.839 -85.5)" fill="#fff"/><path d="M73.807,86.4H71.495a.385.385,0,0,0-.395.395v9.474a.385.385,0,0,0,.395.395h2.312c3.553,0,5.921-2.086,5.921-5.132C79.728,88.43,77.359,86.4,73.807,86.4Zm4.737,5.132c0,2.368-1.861,3.947-4.737,3.947H72.341V87.584h1.466C76.683,87.584,78.544,89.107,78.544,91.532Z" transform="translate(-31.007 -85.893)" fill="#fff"/><path d="M100.08,95.422H94.441V91.87h5.019a.385.385,0,0,0,.395-.395V91.08a.385.385,0,0,0-.395-.395H94.441v-3.1h5.526a.385.385,0,0,0,.395-.395v-.395a.385.385,0,0,0-.395-.395H93.595a.385.385,0,0,0-.395.395v9.474a.385.385,0,0,0,.395.395h6.485a.385.385,0,0,0,.395-.395v-.395A.436.436,0,0,0,100.08,95.422Z" transform="translate(-40.644 -85.893)" fill="#fff"/><path d="M121.6,95.422h-5.019V86.795a.385.385,0,0,0-.395-.395h-.395a.385.385,0,0,0-.395.395v9.474a.385.385,0,0,0,.395.395H121.6a.385.385,0,0,0,.395-.395v-.395A.436.436,0,0,0,121.6,95.422Z" transform="translate(-50.326 -85.893)" fill="#fff"/></g><g transform="translate(59.744 36.953)"><path d="M26.949,0H4.1A4.089,4.089,0,0,0,0,4.1V26.949a4.089,4.089,0,0,0,4.1,4.1H26.949a4.089,4.089,0,0,0,4.1-4.1V4.1A4.089,4.089,0,0,0,26.949,0Z" transform="translate(0 0)" fill="#3a1955"/><g transform="translate(0 0)"><path d="M3.94,24.6A3.941,3.941,0,0,0,0,28.54V44.016a3.874,3.874,0,0,0,3.877,3.877h.032a3.874,3.874,0,0,0,3.877-3.877V24.6Z" transform="translate(0 -16.846)" fill="#f7941d"/><path d="M15.224,0H3.908A3.928,3.928,0,0,0,0,3.908v7.313H.032A3.949,3.949,0,0,1,3.94,7.754H15.319a7.95,7.95,0,0,1,7.974,7.911,7.784,7.784,0,0,1-7.754,7.628H7.754V27.17a3.874,3.874,0,0,1-3.877,3.877H15.508A15.527,15.527,0,0,0,31.047,15.823,15.772,15.772,0,0,0,15.224,0Z" transform="translate(0 0)" fill="#ef4136"/></g></g></g></svg>