<svg xmlns="http://www.w3.org/2000/svg" width="14" height="14" viewBox="0 0 14 14"><path d="M-.1-24.177A5.975,5.975,0,0,0-6.093-30.15a5.982,5.982,0,0,0-5.994,5.973,5.971,5.971,0,0,0,5.994,5.953,5.985,5.985,0,0,0,3.815-1.359l3.45,3.433.74-.736-3.44-3.422A5.878,5.878,0,0,0-.1-24.177Zm-5.994,4.916a4.923,4.923,0,0,1-1.929-.384A5.15,5.15,0,0,1-9.6-20.692a5,5,0,0,1-1.053-1.566,4.79,4.79,0,0,1-.4-1.919,4.914,4.914,0,0,1,.4-1.929A5.12,5.12,0,0,1-9.6-27.671a4.886,4.886,0,0,1,1.574-1.058,5.076,5.076,0,0,1,1.929-.384,4.946,4.946,0,0,1,1.939.394A4.982,4.982,0,0,1-2.59-27.671,4.9,4.9,0,0,1-1.527-26.1a4.854,4.854,0,0,1,.386,1.919,4.768,4.768,0,0,1-.386,1.908A4.627,4.627,0,0,1-2.58-20.713a4.8,4.8,0,0,1-1.574,1.068A4.974,4.974,0,0,1-6.093-19.261Z" transform="translate(12.087 30.15)" fill="#fff"/></svg>